<mxfile host="app.diagrams.net" modified="2023-06-12T14:15:15.131Z" agent="Mozilla/5.0 (Macintosh; Intel Mac OS X 10_15_7) AppleWebKit/537.36 (KHTML, like Gecko) Chrome/114.0.0.0 Safari/537.36" etag="XJ1rFvh4Km-E9z-iAcZc" version="21.3.2" type="device">
  <diagram name="Page-1" id="OPhiyC566b_LsgpyeL__">
    <mxGraphModel dx="954" dy="538" grid="1" gridSize="10" guides="1" tooltips="1" connect="1" arrows="1" fold="1" page="1" pageScale="1" pageWidth="850" pageHeight="1100" math="0" shadow="0">
      <root>
        <mxCell id="0" />
        <mxCell id="1" parent="0" />
        <mxCell id="3D2L8qJFFzMtH-tv2Zi4-3" value="" style="edgeStyle=orthogonalEdgeStyle;rounded=0;orthogonalLoop=1;jettySize=auto;html=1;" edge="1" parent="1" source="3D2L8qJFFzMtH-tv2Zi4-1" target="3D2L8qJFFzMtH-tv2Zi4-2">
          <mxGeometry relative="1" as="geometry" />
        </mxCell>
        <mxCell id="3D2L8qJFFzMtH-tv2Zi4-1" value="BEGIN" style="ellipse;whiteSpace=wrap;html=1;" vertex="1" parent="1">
          <mxGeometry x="370" y="50" width="120" height="80" as="geometry" />
        </mxCell>
        <mxCell id="3D2L8qJFFzMtH-tv2Zi4-5" value="" style="edgeStyle=orthogonalEdgeStyle;rounded=0;orthogonalLoop=1;jettySize=auto;html=1;" edge="1" parent="1" source="3D2L8qJFFzMtH-tv2Zi4-2" target="3D2L8qJFFzMtH-tv2Zi4-4">
          <mxGeometry relative="1" as="geometry" />
        </mxCell>
        <mxCell id="3D2L8qJFFzMtH-tv2Zi4-2" value="INPUT N" style="shape=parallelogram;perimeter=parallelogramPerimeter;whiteSpace=wrap;html=1;fixedSize=1;" vertex="1" parent="1">
          <mxGeometry x="370" y="180" width="120" height="60" as="geometry" />
        </mxCell>
        <mxCell id="3D2L8qJFFzMtH-tv2Zi4-7" value="" style="edgeStyle=orthogonalEdgeStyle;rounded=0;orthogonalLoop=1;jettySize=auto;html=1;" edge="1" parent="1" source="3D2L8qJFFzMtH-tv2Zi4-4" target="3D2L8qJFFzMtH-tv2Zi4-6">
          <mxGeometry relative="1" as="geometry" />
        </mxCell>
        <mxCell id="3D2L8qJFFzMtH-tv2Zi4-4" value="i = 2" style="whiteSpace=wrap;html=1;" vertex="1" parent="1">
          <mxGeometry x="370" y="280" width="120" height="60" as="geometry" />
        </mxCell>
        <mxCell id="3D2L8qJFFzMtH-tv2Zi4-10" value="" style="edgeStyle=orthogonalEdgeStyle;rounded=0;orthogonalLoop=1;jettySize=auto;html=1;" edge="1" parent="1" source="3D2L8qJFFzMtH-tv2Zi4-6" target="3D2L8qJFFzMtH-tv2Zi4-9">
          <mxGeometry relative="1" as="geometry" />
        </mxCell>
        <mxCell id="3D2L8qJFFzMtH-tv2Zi4-20" style="edgeStyle=orthogonalEdgeStyle;rounded=0;orthogonalLoop=1;jettySize=auto;html=1;" edge="1" parent="1" source="3D2L8qJFFzMtH-tv2Zi4-6" target="3D2L8qJFFzMtH-tv2Zi4-18">
          <mxGeometry relative="1" as="geometry" />
        </mxCell>
        <mxCell id="3D2L8qJFFzMtH-tv2Zi4-6" value="i &amp;lt; N" style="rhombus;whiteSpace=wrap;html=1;" vertex="1" parent="1">
          <mxGeometry x="390" y="390" width="80" height="80" as="geometry" />
        </mxCell>
        <mxCell id="3D2L8qJFFzMtH-tv2Zi4-22" style="edgeStyle=orthogonalEdgeStyle;rounded=0;orthogonalLoop=1;jettySize=auto;html=1;exitX=1;exitY=0.75;exitDx=0;exitDy=0;entryX=0.5;entryY=1;entryDx=0;entryDy=0;" edge="1" parent="1" source="3D2L8qJFFzMtH-tv2Zi4-8" target="3D2L8qJFFzMtH-tv2Zi4-21">
          <mxGeometry relative="1" as="geometry" />
        </mxCell>
        <mxCell id="3D2L8qJFFzMtH-tv2Zi4-8" value="OUTPUT False" style="shape=parallelogram;perimeter=parallelogramPerimeter;whiteSpace=wrap;html=1;fixedSize=1;" vertex="1" parent="1">
          <mxGeometry x="530" y="530" width="120" height="60" as="geometry" />
        </mxCell>
        <mxCell id="3D2L8qJFFzMtH-tv2Zi4-11" style="edgeStyle=orthogonalEdgeStyle;rounded=0;orthogonalLoop=1;jettySize=auto;html=1;entryX=0;entryY=0.5;entryDx=0;entryDy=0;" edge="1" parent="1" source="3D2L8qJFFzMtH-tv2Zi4-9" target="3D2L8qJFFzMtH-tv2Zi4-8">
          <mxGeometry relative="1" as="geometry" />
        </mxCell>
        <mxCell id="3D2L8qJFFzMtH-tv2Zi4-15" value="" style="edgeStyle=orthogonalEdgeStyle;rounded=0;orthogonalLoop=1;jettySize=auto;html=1;" edge="1" parent="1" source="3D2L8qJFFzMtH-tv2Zi4-9" target="3D2L8qJFFzMtH-tv2Zi4-14">
          <mxGeometry relative="1" as="geometry" />
        </mxCell>
        <mxCell id="3D2L8qJFFzMtH-tv2Zi4-9" value="N % i == 0" style="rhombus;whiteSpace=wrap;html=1;" vertex="1" parent="1">
          <mxGeometry x="390" y="520" width="80" height="80" as="geometry" />
        </mxCell>
        <mxCell id="3D2L8qJFFzMtH-tv2Zi4-12" value="T" style="text;html=1;align=center;verticalAlign=middle;resizable=0;points=[];autosize=1;strokeColor=none;fillColor=none;" vertex="1" parent="1">
          <mxGeometry x="480" y="560" width="30" height="30" as="geometry" />
        </mxCell>
        <mxCell id="3D2L8qJFFzMtH-tv2Zi4-13" value="T" style="text;html=1;align=center;verticalAlign=middle;resizable=0;points=[];autosize=1;strokeColor=none;fillColor=none;" vertex="1" parent="1">
          <mxGeometry x="395" y="478" width="30" height="30" as="geometry" />
        </mxCell>
        <mxCell id="3D2L8qJFFzMtH-tv2Zi4-16" style="edgeStyle=orthogonalEdgeStyle;rounded=0;orthogonalLoop=1;jettySize=auto;html=1;entryX=0;entryY=0.5;entryDx=0;entryDy=0;" edge="1" parent="1" source="3D2L8qJFFzMtH-tv2Zi4-14" target="3D2L8qJFFzMtH-tv2Zi4-6">
          <mxGeometry relative="1" as="geometry">
            <mxPoint x="220" y="410" as="targetPoint" />
            <Array as="points">
              <mxPoint x="240" y="689" />
              <mxPoint x="240" y="430" />
            </Array>
          </mxGeometry>
        </mxCell>
        <mxCell id="3D2L8qJFFzMtH-tv2Zi4-14" value="i++" style="whiteSpace=wrap;html=1;" vertex="1" parent="1">
          <mxGeometry x="370" y="659" width="120" height="60" as="geometry" />
        </mxCell>
        <mxCell id="3D2L8qJFFzMtH-tv2Zi4-17" value="F" style="text;html=1;align=center;verticalAlign=middle;resizable=0;points=[];autosize=1;strokeColor=none;fillColor=none;" vertex="1" parent="1">
          <mxGeometry x="425" y="608" width="30" height="30" as="geometry" />
        </mxCell>
        <mxCell id="3D2L8qJFFzMtH-tv2Zi4-23" style="edgeStyle=orthogonalEdgeStyle;rounded=0;orthogonalLoop=1;jettySize=auto;html=1;entryX=0.5;entryY=0;entryDx=0;entryDy=0;" edge="1" parent="1" source="3D2L8qJFFzMtH-tv2Zi4-18" target="3D2L8qJFFzMtH-tv2Zi4-21">
          <mxGeometry relative="1" as="geometry" />
        </mxCell>
        <mxCell id="3D2L8qJFFzMtH-tv2Zi4-18" value="OUTPUT True" style="shape=parallelogram;perimeter=parallelogramPerimeter;whiteSpace=wrap;html=1;fixedSize=1;" vertex="1" parent="1">
          <mxGeometry x="550" y="400" width="120" height="60" as="geometry" />
        </mxCell>
        <mxCell id="3D2L8qJFFzMtH-tv2Zi4-21" value="END" style="ellipse;whiteSpace=wrap;html=1;" vertex="1" parent="1">
          <mxGeometry x="720" y="450" width="120" height="80" as="geometry" />
        </mxCell>
      </root>
    </mxGraphModel>
  </diagram>
</mxfile>
